<?xml version="1.0" encoding="UTF-8"?>
<svg viewBox="0 0 800 500" xmlns="http://www.w3.org/2000/svg">
  <!-- Background gradient -->
  <defs>
    <linearGradient id="bg_grad" x1="0%" y1="0%" x2="100%" y2="100%">
      <stop offset="0%" style="stop-color:#f8f9fa;stop-opacity:1" />
      <stop offset="100%" style="stop-color:#e9ecef;stop-opacity:1" />
    </linearGradient>
    
    <!-- Cavity gradient -->
    <linearGradient id="cavity_grad" x1="0%" y1="0%" x2="0%" y2="100%">
      <stop offset="0%" style="stop-color:#adb5bd;stop-opacity:0.8" />
      <stop offset="100%" style="stop-color:#495057;stop-opacity:0.8" />
    </linearGradient>
    
    <!-- Atom gradient -->
    <radialGradient id="atom_grad" cx="50%" cy="50%" r="50%" fx="50%" fy="50%">
      <stop offset="0%" style="stop-color:#f8c291;stop-opacity:1" />
      <stop offset="100%" style="stop-color:#e55039;stop-opacity:1" />
    </radialGradient>
    
    <!-- Photon gradient -->
    <radialGradient id="photon_grad" cx="50%" cy="50%" r="50%" fx="50%" fy="50%">
      <stop offset="0%" style="stop-color:#ffffff;stop-opacity:1" />
      <stop offset="100%" style="stop-color:#3498db;stop-opacity:1" />
    </radialGradient>
    
    <!-- Superposition gradient -->
    <linearGradient id="super_grad" x1="0%" y1="0%" x2="100%" y2="100%">
      <stop offset="0%" style="stop-color:#3498db;stop-opacity:0.7" />
      <stop offset="25%" style="stop-color:#9b59b6;stop-opacity:0.7" />
      <stop offset="50%" style="stop-color:#2ecc71;stop-opacity:0.7" />
      <stop offset="75%" style="stop-color:#f1c40f;stop-opacity:0.7" />
      <stop offset="100%" style="stop-color:#e74c3c;stop-opacity:0.7" />
    </linearGradient>
    
    <!-- Atom glow -->
    <filter id="atom_glow" x="-50%" y="-50%" width="200%" height="200%">
      <feGaussianBlur in="SourceGraphic" stdDeviation="3" result="blur"/>
      <feColorMatrix in="blur" type="matrix" values="1 0 0 0 0  0 1 0 0 0  0 0 1 0 0  0 0 0 18 -7" result="glow"/>
      <feBlend in="SourceGraphic" in2="glow" mode="normal"/>
    </filter>
    
    <!-- Photon glow -->
    <filter id="photon_glow" x="-50%" y="-50%" width="200%" height="200%">
      <feGaussianBlur in="SourceGraphic" stdDeviation="4" result="blur"/>
      <feColorMatrix in="blur" type="matrix" values="0 0 0 0 0.2  0 0 0 0 0.5  0 0 1 0 1  0 0 0 20 -7" result="glow"/>
      <feBlend in="SourceGraphic" in2="glow" mode="normal"/>
    </filter>
    
    <!-- Superposition glow -->
    <filter id="super_glow" x="-30%" y="-30%" width="160%" height="160%">
      <feGaussianBlur in="SourceGraphic" stdDeviation="6" result="blur"/>
      <feColorMatrix in="blur" type="matrix" values="1 0 0 0 0  0 1 0 0 0  0 0 1 0 0  0 0 0 12 -5" result="glow"/>
      <feBlend in="SourceGraphic" in2="glow" mode="normal"/>
    </filter>
  </defs>
  
  <!-- Background -->
  <rect width="800" height="500" fill="url(#bg_grad)"/>
  
  <!-- Main title -->
  <text x="400" y="40" font-family="Arial" font-size="24" text-anchor="middle" font-weight="bold">Atoms/Qubits escaping optical cavity/BH sequentially</text>
  <text x="400" y="70" font-family="Arial" font-size="16" text-anchor="middle">Atoms/Qubits escaping optical cavity/BH</text>
  
  <!-- Optical cavity -->
  <g transform="translate(100, 200)">
    <!-- Cavity body -->
    <rect x="0" y="-100" width="300" height="200" rx="5" ry="5" fill="url(#cavity_grad)" stroke="#343a40" stroke-width="3"/>
    
    <!-- Mirror on left -->
    <rect x="-10" y="-110" width="20" height="220" rx="2" ry="2" fill="#495057" stroke="#343a40" stroke-width="2"/>
    
    <!-- Semi-transparent mirror on right (output coupler) -->
    <rect x="290" y="-110" width="20" height="220" rx="2" ry="2" fill="#6c757d" stroke="#343a40" stroke-width="2" opacity="0.7"/>
    
    <!-- Complicated superposition visualization -->
    <!-- Wave-like pattern representing superposition -->
    <path d="M20,-40 Q45,20 70,-30 Q95,50 120,-20 Q145,30 170,-40 Q195,30 220,-20 Q245,40 270,-30" 
          stroke="url(#super_grad)" stroke-width="6" fill="none" opacity="0.8" filter="url(#super_glow)"/>
    
    <!-- Secondary wave pattern (N-1 state) -->
    <path d="M20,-20 Q45,30 70,-10 Q95,20 120,-30 Q145,10 170,-20 Q195,40 220,0 Q245,20 270,-15" 
          stroke="#9b59b6" stroke-width="4" fill="none" opacity="0.6" filter="url(#super_glow)"/>
    
    <!-- Tertiary wave pattern (N-2 state) -->
    <path d="M20,10 Q45,-20 70,30 Q95,-10 120,20 Q145,-30 170,10 Q195,-20 220,30 Q245,-10 270,20" 
          stroke="#2ecc71" stroke-width="4" fill="none" opacity="0.6" filter="url(#super_glow)"/>
    
    <!-- Fourth wave pattern (N-3 state) -->
    <path d="M20,30 Q45,-10 70,20 Q95,-30 120,10 Q145,-20 170,30 Q195,-10 220,10 Q245,-20 270,0" 
          stroke="#f1c40f" stroke-width="4" fill="none" opacity="0.6" filter="url(#super_glow)"/>
    
    <!-- A few "photon particles" to enhance superposition visualization -->
    <circle cx="50" cy="-40" r="6" fill="url(#photon_grad)" filter="url(#photon_glow)" opacity="0.8"/>
    <circle cx="120" cy="-20" r="8" fill="url(#photon_grad)" filter="url(#photon_glow)" opacity="0.8"/>
    <circle cx="190" cy="15" r="5" fill="url(#photon_grad)" filter="url(#photon_glow)" opacity="0.8"/>
    <circle cx="240" cy="-30" r="7" fill="url(#photon_grad)" filter="url(#photon_glow)" opacity="0.8"/>
    <circle cx="80" cy="25" r="6" fill="url(#photon_grad)" filter="url(#photon_glow)" opacity="0.8"/>
    <circle cx="160" cy="-15" r="7" fill="url(#photon_grad)" filter="url(#photon_glow)" opacity="0.8"/>
    <circle cx="220" cy="20" r="5" fill="url(#photon_grad)" filter="url(#photon_glow)" opacity="0.8"/>
    
    <!-- Cavity label -->
    <text x="150" y="130" font-family="Arial" font-size="16" text-anchor="middle" fill="#343a40">BH/Optical cavity (field)</text>
    <text x="150" y="155" font-family="Arial" font-size="14" text-anchor="middle" fill="#343a40">A mixed and complicated superposition of |N⟩, |N-1⟩, |N-2⟩, ..., |0⟩ photon states</text>
  </g>
  
  <!-- Atom Trajectory -->
  <path d="M430,180 Q480,180 530,160 Q580,140 630,130 Q680,120 730,130" 
        stroke="#666" stroke-width="2" fill="none" stroke-dasharray="5,3"/>
  
  <!-- Atoms escaping cavity - adding additional atoms as requested -->
  <!-- Atom 5 - furthest from cavity -->
  <g transform="translate(730, 130)">
    <circle cx="0" cy="0" r="25" fill="url(#atom_grad)" stroke="#e74c3c" stroke-width="2" filter="url(#atom_glow)"/>
    <text x="0" y="0" font-family="Arial" font-size="14" text-anchor="middle" dominant-baseline="middle" font-weight="bold">A₁</text>
  </g>
  
  <!-- Atom 4 -->
  <g transform="translate(675, 135)">
    <circle cx="0" cy="0" r="25" fill="url(#atom_grad)" stroke="#e74c3c" stroke-width="2" filter="url(#atom_glow)"/>
    <text x="0" y="0" font-family="Arial" font-size="14" text-anchor="middle" dominant-baseline="middle" font-weight="bold">A₂</text>
  </g>
  
  <!-- Atom 3 -->
  <g transform="translate(620, 140)">
    <circle cx="0" cy="0" r="25" fill="url(#atom_grad)" stroke="#e74c3c" stroke-width="2" filter="url(#atom_glow)"/>
    <text x="0" y="0" font-family="Arial" font-size="14" text-anchor="middle" dominant-baseline="middle" font-weight="bold">A₃</text>
  </g>
  
  <!-- Atom 2 -->
  <g transform="translate(565, 150)">
    <circle cx="0" cy="0" r="25" fill="url(#atom_grad)" stroke="#e74c3c" stroke-width="2" filter="url(#atom_glow)"/>
    <text x="0" y="0" font-family="Arial" font-size="14" text-anchor="middle" dominant-baseline="middle" font-weight="bold">A₄</text>
  </g>
  
  <!-- Atom 1 -->
  <g transform="translate(510, 165)">
    <circle cx="0" cy="0" r="25" fill="url(#atom_grad)" stroke="#e74c3c" stroke-width="2" filter="url(#atom_glow)"/>
    <text x="0" y="0" font-family="Arial" font-size="14" text-anchor="middle" dominant-baseline="middle" font-weight="bold">A₅</text>
  </g>
  
  <!-- Shared label for escaping atoms -->
  <text x="620" y="190" font-family="Arial" font-size="12" text-anchor="middle" fill="#343a40">P(|0⟩)=1/2, P(|1⟩)=1/2</text>
  
  <!-- Atoms remaining near cavity -->
  <!-- Atom 6 -->
  <g transform="translate(430, 150)">
    <circle cx="0" cy="0" r="25" fill="url(#atom_grad)" stroke="#e74c3c" stroke-width="2" filter="url(#atom_glow)" opacity="0.9"/>
    <text x="0" y="0" font-family="Arial" font-size="14" text-anchor="middle" dominant-baseline="middle" font-weight="bold">A₆</text>
    <text x="0" y="35" font-family="Arial" font-size="12" text-anchor="middle" fill="#343a40">|0⟩</text>
  </g>
  
  <!-- Atom 7 -->
  <g transform="translate(430, 220)">
    <circle cx="0" cy="0" r="25" fill="url(#atom_grad)" stroke="#e74c3c" stroke-width="2" filter="url(#atom_glow)" opacity="0.9"/>
    <text x="0" y="0" font-family="Arial" font-size="14" text-anchor="middle" dominant-baseline="middle" font-weight="bold">A₇</text>
    <text x="0" y="35" font-family="Arial" font-size="12" text-anchor="middle" fill="#343a40">|0⟩</text>
  </g>
  
  <!-- Atom 8 -->
  <g transform="translate(430, 290)">
    <circle cx="0" cy="0" r="25" fill="url(#atom_grad)" stroke="#e74c3c" stroke-width="2" filter="url(#atom_glow)" opacity="0.9"/>
    <text x="0" y="0" font-family="Arial" font-size="14" text-anchor="middle" dominant-baseline="middle" font-weight="bold">A₈</text>
    <text x="0" y="35" font-family="Arial" font-size="12" text-anchor="middle" fill="#343a40">|0⟩</text>
  </g>
</svg>
